<?xml version="1.0" encoding="utf-8"?>
<!-- Generator: Adobe Illustrator 16.0.3, SVG Export Plug-In . SVG Version: 6.00 Build 0)  -->
<!DOCTYPE svg PUBLIC "-//W3C//DTD SVG 1.1//EN" "http://www.w3.org/Graphics/SVG/1.1/DTD/svg11.dtd">
<svg version="1.1" id="Calque_1" xmlns="http://www.w3.org/2000/svg" xmlns:xlink="http://www.w3.org/1999/xlink" x="0px" y="0px"
	 width="500px" height="500px" viewBox="0 0 500 500" enable-background="new 0 0 500 500" xml:space="preserve">
<path fill="#E43142" d="M489.21,207.281l10.79-7.105l-10.526-13.509l10.263-9.386l-13.685-12.369l12.281-8.596l-17.193-9.562
	l10.526-10.965l-18.684-5.965l6.93-12.544l-20.614-5l4.474-15.088l-22.72,2.018l-3.684-15.351l-16.579,8.245l-7.632-14.736
	l-13.509,13.069L384.21,77.807l-6.491,16.93l-16.228-10.264l-4.825,19.825l-17.28-6.93l-0.088,19.736l-19.824-4.824l3.333,22.544
	l-19.474-2.193l3.333,20l-19.562,3.421l9.299,15.438l-19.211,1.755l10.264,19.474l-21.053,4.386l12.632,18.158l-19.825,7.631
	l15.088,14.299l-17.719,10.176l17.018,13.333l-11.404,15.614l16.404,2.104l-9.035,14.299l17.018,0.877l-5.614,14.474l16.403-2.632
	l-0.438,16.667l14.912-6.141c-23.158,18.685-89.123,48.509-140.526,59.649c-0.088,0-0.263,0.088-0.351,0.088
	c4.298-35.702-5.526-72.808-11.403-90.965l8.859,4.648l5.789-12.456l10.878,5l7.456-16.666l12.895,2.018l3.947-16.316l15.088-0.613
	l-5.438-13.772l14.648-4.474l-9.298-11.93l12.807-10.526l-11.315-7.456l0.088-0.088l11.403-9.386l-11.491-7.632l8.333-11.491
	l-12.104-9.035l1.315-2.193l5.526-8.069L216.316,145l6.842-12.018L210,127.894l5.526-12.018l-13.947-6.14l5.701-11.579
	l-15.877-6.315l4.211-13.246l-18.07-3.771l6.315-13.597l-19.649,0.438l3.597-14.824l-19.123,4.298l-0.263-14.298l-20.351,6.052
	l-3.772-15.351l-18.684,13.158L94.649,29.299L84.474,45L70.439,36.14l-5.088,18.07l-19.649-3.158l2.896,17.895l-19.211-0.613
	l5.789,19.561l-18.421,2.72l9.912,17.105l-19.561,5.789l14.21,17.808l-17.895,7.895l12.895,15.614L1.228,167.544l15.79,8.685
	l-15.79,11.228l18.685,11.667L4.035,213.334l20.088,9.298l-13.334,16.579l20.176,4.736l-10.176,17.72l21.403,2.982l-2.018,19.211
	l15.264-6.491l-0.614,16.842L70,286.403l2.456,15.352l12.807-10.614l8.07,14.649l10.088-13.158l6.403,11.229l11.315-10.966
	l8.685,9.035l9.824-12.631l2.018,1.403c5.878,18.245,16.053,57.368,9.035,91.315c-49.562,20.965-96.14,73.422-96.666,73.948
	l-2.896,3.245l10.79,9.649l3.421,2.719l2.895-3.245c5.965-6.579,60-64.474,107.105-74.649c52.018-11.229,128.859-45,152.544-66.93
	l2.456,10l14.824-5.965l6.141,13.596L363.772,335l6.315,10.176l11.316-7.807l6.842,9.824l14.824-10.702l10.088,8.334l11.667-12.105
	l13.333,7.105l2.193-14.649l14.824,3.509l-2.018-15l16.403-2.632l-5.965-12.105h0.088l14.562-2.368l-6.053-12.368l12.982-5.702
	l-5.965-13.947l2.193-1.228l8.859-4.211l-6.229-14.386l12.018-6.93l-8.771-10.965l10.789-7.544L489.21,207.281z"/>
<g>
	<path d="M74.802,350.902h34.799L160.2,484.5h-34.399l-8-23.8H66.602l-8,23.8H24.202L74.802,350.902z M75.201,435.1h34l-17.2-50.799
		L75.201,435.1z"/>
	<path d="M170.6,370.302c21,0,30.399-1.4,37.6-19.399h23V484.5h-30.2v-89.599H170.6V370.302z"/>
	<path d="M260.199,370.302c21,0,30.399-1.4,37.6-19.399h23V484.5h-30.2v-89.599h-30.399V370.302z"/>
	<path d="M342.399,350.902h36.8l29.8,51.398l29.799-51.398h37l-50.999,81.599V484.5h-31.399v-51.999L342.399,350.902z"/>
</g>
</svg>
